{"title":"Legend.of.the.Millennium.Dragon.BRRip.XviD.DualAudio-SceneLovers","uid":6705559,"size":1043021824,"categoryP":"video","categoryS":"movies","magnet":"?xt=urn:btih:4236908854258416245e5e84431ab6f1b46ca007&amp;dn=Legend.of.the.Millennium.Dragon.BRRip.XviD.DualAudio-SceneLovers&amp;tr=udp%3A%2F%2Ftracker.openbittorrent.com%3A80&amp;tr=udp%3A%2F%2Fopen.demonii.com%3A1337&amp;tr=udp%3A%2F%2Ftracker.coppersurfer.tk%3A6969&amp;tr=udp%3A%2F%2Fexodus.desync.com%3A6969","seeders":4,"leechers":2,"uploader":"drogbabr","files":2,"time":1317143742,"description":"Poster &lt;a href=&quot;\nhttp://shareimage.org/images/1k74aiq9lu15pq4s8ma.gif&quot; rel=&quot;nofollow&quot; target=&quot;_NEW&quot;&gt;\nhttp://shareimage.org/images/1k74aiq9lu15pq4s8ma.gif&lt;/a&gt;\n\nScreens &lt;a href=&quot;\nhttp://shareimage.org/images/qpxb60jldyo5grde3xhg.png&quot; rel=&quot;nofollow&quot; target=&quot;_NEW&quot;&gt;\nhttp://shareimage.org/images/qpxb60jldyo5grde3xhg.png&lt;/a&gt; &lt;a href=&quot;\nhttp://shareimage.org/images/ccqcq9hk4hjwivuz4na2.png&quot; rel=&quot;nofollow&quot; target=&quot;_NEW&quot;&gt;\nhttp://shareimage.org/images/ccqcq9hk4hjwivuz4na2.png&lt;/a&gt;\n\nIMDB &lt;a href=&quot;\nhttp://www.imdb.com/title/tt1849027/&quot; rel=&quot;nofollow&quot; target=&quot;_NEW&quot;&gt;\nhttp://www.imdb.com/title/tt1849027/&lt;/a&gt;\n\n\nVideo\nID                               : 0\nFormat                           : MPEG-4 Visual\nFormat profile                   : Advanced Simple@L5\nFormat settings, BVOP            : 2\nFormat settings, QPel            : No\nFormat settings, GMC             : No warppoints\nFormat settings, Matrix          : Default (H.263)\nCodec ID                         : XVID\nCodec ID/Hint                    : XviD\nDuration                         : 1h 38mn\nBit rate                         : 1 125 Kbps\nWidth                            : 704 pixels\nHeight                           : 304 pixels\nDisplay aspect ratio             : 2.35:1\nFrame rate                       : 23.976 fps\nColor space                      : YUV\nChroma subsampling               : 4:2:0\nBit depth                        : 8 bits\nScan type                        : Progressive\nCompression mode                 : Lossy\nBits/(Pixel*Frame)               : 0.219\nStream size                      : 790 MiB (81%)\nWriting library                  : XviD 1.2.1 (UTC 2008-12-04)\n\n\nAudio #1\nID                               : 1\nFormat                           : MPEG Audio\nFormat version                   : Version 1\nFormat profile                   : Layer 3\nMode                             : Joint stereo\nMode extension                   : MS Stereo\nCodec ID                         : 55\nCodec ID/Hint                    : MP3\nDuration                         : 1h 38mn\nBit rate mode                    : Constant\nBit rate                         : 128 Kbps\nChannel(s)                       : 2 channels\nSampling rate                    : 48.0 KHz\nCompression mode                 : Lossy\nStream size                      : 89.9 MiB (9%)\nAlignment                        : Aligned on interleaves\nInterleave, duration             : 42 ms (1.00 video frame)\nInterleave, preload duration     : 504 ms\nWriting library                  : LAME3.98r\nEncoding settings                : -m j -V 4 -q 2 -lowpass 17 -b 128\n\nAudio #2\nID                               : 2\nFormat                           : MPEG Audio\nFormat version                   : Version 1\nFormat profile                   : Layer 3\nMode                             : Joint stereo\nMode extension                   : MS Stereo\nCodec ID                         : 55\nCodec ID/Hint                    : MP3\nDuration                         : 1h 38mn\nBit rate mode                    : Constant\nBit rate                         : 128 Kbps\nChannel(s)                       : 2 channels\nSampling rate                    : 48.0 KHz\nCompression mode                 : Lossy\nStream size                      : 89.9 MiB (9%)\nAlignment                        : Aligned on interleaves\nInterleave, duration             : 42 ms (1.00 video frame)\nInterleave, preload duration     : 504 ms\nWriting library                  : LAME3.98r\nEncoding settings                : -m j -V 4 -q 2 -lowpass 17 -b 128\n","torrent":{"xt":"urn:btih:4236908854258416245e5e84431ab6f1b46ca007","amp;dn":"Legend.of.the.Millennium.Dragon.BRRip.XviD.DualAudio-SceneLovers","amp;tr":["udp%3A%2F%2Ftracker.openbittorrent.com%3A80","udp%3A%2F%2Fopen.demonii.com%3A1337","udp%3A%2F%2Ftracker.coppersurfer.tk%3A6969","udp%3A%2F%2Fexodus.desync.com%3A6969"],"infoHash":"4236908854258416245e5e84431ab6f1b46ca007","infoHashBuffer":{"type":"Buffer","data":[66,54,144,136,84,37,132,22,36,94,94,132,67,26,182,241,180,108,160,7]},"announce":[],"urlList":[]}}